<svg width="64" height="64" viewBox="0 0 64 64" fill="none" xmlns="http://www.w3.org/2000/svg">
<path d="M6 29.894H58V60.894C58 61.1593 57.8946 61.4136 57.7071 61.6012C57.5196 61.7887 57.2652 61.894 57 61.894H7C6.73478 61.894 6.48043 61.7887 6.29289 61.6012C6.10536 61.4136 6 61.1593 6 60.894V29.894Z" stroke="#0046F5" stroke-width="4" stroke-linecap="round" stroke-linejoin="round"/>
<path d="M3 17.894H61C61.2652 17.894 61.5196 17.9994 61.7071 18.1869C61.8946 18.3745 62 18.6288 62 18.894V29.894H2V18.894C2 18.6288 2.10536 18.3745 2.29289 18.1869C2.48043 17.9994 2.73478 17.894 3 17.894V17.894Z" stroke="#0046F5" stroke-width="4" stroke-linecap="round" stroke-linejoin="round"/>
<path d="M32 17.894V61.894" stroke="#0046F5" stroke-width="4" stroke-linecap="round" stroke-linejoin="round"/>
<path d="M32 12.884L44.588 3.14C45.5419 2.40181 46.7138 2.00088 47.92 2H51.048C51.7627 2.00013 52.4703 2.14107 53.1306 2.41475C53.7908 2.68843 54.3906 3.0895 54.8958 3.59505C55.401 4.1006 55.8016 4.70072 56.0748 5.36113C56.348 6.02154 56.4884 6.72931 56.488 7.444C56.4877 8.8867 55.9145 10.2702 54.8944 11.2904C53.8742 12.3105 52.4907 12.8837 51.048 12.884H32Z" stroke="#0CE8F9" stroke-width="4" stroke-linecap="round" stroke-linejoin="round"/>
<path d="M31.816 12.884L19.228 3.14C18.2741 2.40181 17.1022 2.00088 15.896 2H12.768C12.0533 2.00013 11.3456 2.14107 10.6854 2.41475C10.0252 2.68843 9.4254 3.0895 8.92022 3.59505C8.41504 4.1006 8.01441 4.70072 7.74121 5.36113C7.46801 6.02154 7.32761 6.72931 7.328 7.444V7.444C7.32827 8.8867 7.90149 10.2702 8.92163 11.2904C9.94177 12.3105 11.3253 12.8837 12.768 12.884H31.816Z" stroke="#0CE8F9" stroke-width="4" stroke-linecap="round" stroke-linejoin="round"/>
</svg>
