<svg width="82" height="57" viewBox="0 0 82 57" fill="none" xmlns="http://www.w3.org/2000/svg">
<path d="M43.371 2H7.17101C5.79973 2.00053 4.48477 2.5455 3.51514 3.51514C2.5455 4.48477 2.00053 5.79973 2 7.171V27.854C2.00053 29.2253 2.5455 30.5402 3.51514 31.5099C4.48477 32.4795 5.79973 33.0245 7.17101 33.025H12.342V38.2L17.513 33.029H43.367C44.7383 33.0285 46.0532 32.4835 47.0229 31.5139C47.9925 30.5442 48.5375 29.2293 48.538 27.858V7.171C48.5375 5.80042 47.993 4.48607 47.0243 3.51655C46.0555 2.54703 44.7416 2.00159 43.371 2Z" stroke="#0046F5" stroke-width="4" stroke-linecap="round" stroke-linejoin="round"/>
<path d="M58.8831 18.805H74.3951C75.7663 18.8055 77.0813 19.3505 78.0509 20.3201C79.0206 21.2898 79.5655 22.6047 79.5661 23.976V44.655C79.5655 46.0263 79.0206 47.3412 78.0509 48.3109C77.0813 49.2805 75.7663 49.8255 74.3951 49.826H69.229V54.997L64.0581 49.826H38.2001C36.8288 49.8255 35.5138 49.2805 34.5442 48.3109C33.5746 47.3412 33.0296 46.0263 33.0291 44.655V43.362" stroke="#0CE8F9" stroke-width="4" stroke-linecap="round" stroke-linejoin="round"/>
<path d="M12.575 12.341H38.2" stroke="#0046F5" stroke-width="4" stroke-linecap="round" stroke-linejoin="round"/>
<path d="M12.575 22.683H38.2" stroke="#0046F5" stroke-width="4" stroke-linecap="round" stroke-linejoin="round"/>
</svg>
