<svg width="49" height="77" viewBox="0 0 49 77" fill="none" xmlns="http://www.w3.org/2000/svg">
<path d="M47.0784 76.5024H1.92158C0.840694 76.5024 0 75.6618 0 74.5809V1.92158C0 0.840694 0.840694 0 1.92158 0H47.0784C48.1593 0 49 0.840694 49 1.92158V74.5809C49 75.6618 48.1593 76.5024 47.0784 76.5024ZM3.84313 72.6593H45.1568V66.8946H3.84313V72.6593ZM3.84313 62.9314H45.1568V3.84314H3.84313V62.9314ZM26.902 72.0588H22.2181C21.1373 72.0588 20.2966 71.2181 20.2966 70.1373C20.2966 69.0564 21.1373 68.2157 22.2181 68.2157H26.902C27.9829 68.2157 28.8235 69.0564 28.8235 70.1373C28.8235 71.2181 27.8628 72.0588 26.902 72.0588Z" fill="#0046F5"/>
<path d="M40.9535 52.1225H36.2697C35.1888 52.1225 34.3482 51.2818 34.3482 50.201C34.3482 49.1201 35.1888 48.2794 36.2697 48.2794H39.032V45.397C39.032 44.3162 39.8727 43.4755 40.9535 43.4755C42.0344 43.4755 42.8751 44.3162 42.8751 45.397V50.201C42.8751 51.2818 42.0344 52.1225 40.9535 52.1225ZM12.7305 52.1225H8.04668C6.9658 52.1225 6.12512 51.2818 6.12512 50.201V45.397C6.12512 44.3162 6.9658 43.4755 8.04668 43.4755C9.12756 43.4755 9.96826 44.3162 9.96826 45.397V48.2794H12.7305C13.8114 48.2794 14.6521 49.1201 14.6521 50.201C14.6521 51.2818 13.8114 52.1225 12.7305 52.1225ZM33.9879 44.9166H15.1325C14.0516 44.9166 13.2109 44.076 13.2109 42.9951V23.6593C13.2109 22.5784 14.0516 21.7377 15.1325 21.7377H33.9879C35.0687 21.7377 35.9094 22.5784 35.9094 23.6593V42.9951C35.9094 44.076 35.0687 44.9166 33.9879 44.9166ZM30.0246 41.0735H31.9462V33.3872H28.7036C28.7036 34.4681 27.8629 35.1887 26.782 35.1887C25.7011 35.1887 24.8604 34.348 24.8604 33.2671V30.5049H22.0982C21.0173 30.5049 20.1766 29.6642 20.1766 28.5833V25.5809H17.054V31.3456H19.8163C20.8972 31.3456 21.7379 32.1862 21.7379 33.2671C21.7379 34.348 20.8972 35.1887 19.8163 35.1887H17.054V41.0735H20.1766V38.1912C20.1766 37.1103 21.0173 36.2696 22.0982 36.2696C23.179 36.2696 24.0197 37.1103 24.0197 38.1912V41.0735H26.0614V38.1912C26.0614 37.1103 26.9021 36.2696 27.983 36.2696C29.0638 36.2696 29.9045 37.1103 29.9045 38.1912V41.0735H30.0246ZM28.8236 29.424H32.0663V25.4608H24.1398V26.5416H26.9021C27.983 26.5416 28.8236 27.3823 28.8236 28.4632V29.424ZM40.9535 23.1789C39.8727 23.1789 39.032 22.3382 39.032 21.2573V18.2549H36.2697C35.1888 18.2549 34.3482 17.4142 34.3482 16.3333C34.3482 15.2524 35.1888 14.4117 36.2697 14.4117H40.9535C42.0344 14.4117 42.8751 15.2524 42.8751 16.3333V21.1372C42.8751 22.2181 42.0344 23.1789 40.9535 23.1789ZM8.04668 23.1789C6.9658 23.1789 6.12512 22.3382 6.12512 21.2573V16.4534C6.12512 15.3725 6.9658 14.5318 8.04668 14.5318H12.7305C13.8114 14.5318 14.6521 15.3725 14.6521 16.4534C14.6521 17.5343 13.8114 18.375 12.7305 18.375H9.96826V21.2573C9.96826 22.2181 9.12756 23.1789 8.04668 23.1789Z" fill="#0CE8F9"/>
</svg>
