<svg width="190" height="69" viewBox="0 0 190 69" fill="none" xmlns="http://www.w3.org/2000/svg">
<g clip-path="url(#clip0)">
<path d="M19.1131 17.1298C19.3773 17.4093 19.695 17.6317 20.0471 17.7837C20.3992 17.9357 20.7783 18.0141 21.1614 18.0141C21.5445 18.0141 21.9235 17.9357 22.2756 17.7837C22.6277 17.6317 22.9455 17.4093 23.2097 17.1298C24.2961 16.0356 25.7697 15.4208 27.3062 15.4208C28.8427 15.4208 30.3163 16.0356 31.4027 17.1298C32.4892 18.2241 33.0996 19.7082 33.0996 21.2558C33.0996 22.8033 32.4892 24.2874 31.4027 25.3817L10.92 46.0119C9.81778 47.0757 8.35015 47.6696 6.82351 47.6696C5.29688 47.6696 3.82924 47.0757 2.72698 46.0119C1.67074 44.9017 1.08108 43.4235 1.08108 41.886C1.08108 40.3484 1.67074 38.8702 2.72698 37.7601L16.0431 24.3505L16.1894 24.2032L16.3356 24.0559C16.5872 23.7859 16.783 23.4684 16.9119 23.1216C17.0408 22.7749 17.1002 22.4059 17.0866 22.0359C17.073 21.6659 16.9867 21.3023 16.8327 20.9661C16.6787 20.6299 16.46 20.3278 16.1894 20.0773C15.6219 19.5786 14.8943 19.3038 14.1411 19.3038C13.388 19.3038 12.6603 19.5786 12.0928 20.0773L11.9466 20.2246L11.8003 20.3719L9.89832 22.2876C8.79613 23.3515 7.32847 23.9455 5.80178 23.9455C4.2751 23.9455 2.80743 23.3515 1.70525 22.2876C-0.635534 20.0746 -0.492025 16.3933 1.70525 14.0358L13.9962 1.65666C15.0985 0.592855 16.5661 -0.0010376 18.0928 -0.0010376C19.6194 -0.0010376 21.087 0.592855 22.1893 1.65666C23.2455 2.76683 23.8352 4.24499 23.8352 5.78257C23.8352 7.32015 23.2455 8.79831 22.1893 9.90847L19.1165 13.0032C18.8388 13.2691 18.6176 13.589 18.4663 13.9435C18.315 14.2981 18.2368 14.6799 18.2365 15.0658C18.2362 15.4517 18.3137 15.8337 18.4644 16.1885C18.6151 16.5433 18.8358 16.8635 19.1131 17.1298Z" fill="url(#paint0_linear)"/>
<path d="M39.7418 41.4444C40.4476 41.9374 41.0455 42.571 41.4986 43.306C41.9516 44.041 42.2502 44.8618 42.3758 45.7176H37.6935C37.6205 45.3031 37.4664 44.9073 37.2404 44.5532C37.0143 44.199 36.7207 43.8936 36.3765 43.6546C35.6458 43.1502 34.775 42.8923 33.8895 42.9181C33.5493 42.8789 33.2047 42.911 32.8773 43.0124C32.55 43.1138 32.2471 43.2823 31.9875 43.5073C31.7587 43.6774 31.5732 43.8996 31.4461 44.1557C31.319 44.4119 31.2539 44.6947 31.2562 44.9811C31.2452 45.2112 31.2933 45.4402 31.3957 45.6461C31.4982 45.8521 31.6516 46.0279 31.8412 46.1567C32.2811 46.4888 32.7768 46.7383 33.3045 46.8933C34.0707 47.1424 34.8528 47.3392 35.6453 47.4825C37.1085 47.7771 38.2786 48.0717 39.303 48.3663C40.2176 48.6773 41.0281 49.2386 41.6438 49.9874C42.0122 50.3775 42.2941 50.842 42.4707 51.3502C42.6473 51.8583 42.7147 52.3985 42.6683 52.9348C42.6755 53.6589 42.5057 54.3736 42.1741 55.016C41.8424 55.6585 41.3589 56.2089 40.7663 56.6188C39.1792 57.5754 37.3463 58.0369 35.499 57.9452C33.012 57.9452 30.9637 57.5033 29.5005 56.4715C28.758 55.9698 28.1273 55.318 27.6487 54.5574C27.17 53.7968 26.8538 52.9442 26.7202 52.0538H31.4018C31.456 52.4744 31.6023 52.8776 31.83 53.2343C32.0578 53.5911 32.3613 53.8925 32.7188 54.1167C33.5583 54.6201 34.5215 54.8754 35.4983 54.8532C35.8386 54.8924 36.1832 54.8603 36.5105 54.7589C36.8378 54.6575 37.1408 54.489 37.4003 54.264C37.617 54.0828 37.7939 53.8583 37.9197 53.6046C38.0456 53.3509 38.1178 53.0736 38.1316 52.7903C38.1426 52.5602 38.0946 52.3311 37.9921 52.1252C37.8896 51.9193 37.7362 51.7434 37.5466 51.6146C37.1067 51.2826 36.6111 51.0331 36.0834 50.8781C35.2715 50.6144 34.4398 50.4174 33.5963 50.2889C32.4093 50.0637 31.2367 49.7674 30.0848 49.4016C29.1969 49.1099 28.3933 48.604 27.744 47.9279C27.0839 47.1465 26.721 46.1543 26.7202 45.1284C26.6968 44.4016 26.8595 43.6809 27.1926 43.0357C27.5257 42.3905 28.018 41.8425 28.6222 41.4444C30.1932 40.436 32.0272 39.9229 33.8895 39.9707C36.5228 39.8206 38.4248 40.4126 39.7418 41.4444Z" fill="white"/>
<path d="M59.2 53.8221V57.6534H56.5667C54.3694 57.6534 52.7627 57.2115 51.5919 56.1797C50.4246 55.2959 49.8362 53.6748 49.8362 51.4646V43.802H47.2029V39.9707H49.8362V35.5502H54.8109V39.9707H59.2V43.802H54.8109V51.4646C54.8109 52.3484 54.9572 52.9383 55.396 53.2329C55.9717 53.5689 56.6343 53.7228 57.298 53.6748H59.2V53.8221Z" fill="white"/>
<path d="M76.9038 40.8552C78.0217 41.4803 78.8978 42.4665 79.3909 43.6547V39.9707H84.2159V57.6534H79.3909V53.9694C78.8975 55.1568 78.0214 56.1423 76.9038 56.7668C75.6134 57.5053 74.1433 57.8647 72.6603 57.8042C71.1329 57.8464 69.6207 57.489 68.2713 56.7668C66.9747 56.0522 65.9076 54.9795 65.1958 53.6748C64.3996 52.182 63.9977 50.5081 64.0285 48.8138C64.0154 47.1208 64.4163 45.4506 65.1958 43.9507C65.9065 42.6453 66.9725 41.5716 68.2686 40.8559C69.6192 40.1349 71.1324 39.7792 72.6603 39.8234C74.1445 39.7426 75.6197 40.1013 76.9038 40.8552ZM69.5903 45.1284C68.6403 46.1154 68.114 47.4392 68.125 48.8138C68.0721 49.4997 68.1768 50.1887 68.4309 50.8273C68.685 51.466 69.0817 52.0371 69.5903 52.4964C70.5879 53.4076 71.9028 53.8844 73.2481 53.8228C74.5934 53.8844 75.9083 53.4076 76.9059 52.4964C77.4024 52.0278 77.7905 51.4551 78.0429 50.8187C78.2953 50.1823 78.4057 49.4979 78.3664 48.8138C78.4198 48.1278 78.3155 47.4386 78.0618 46.7997C77.808 46.1608 77.4116 45.5894 76.9031 45.1298C75.8922 44.2412 74.5866 43.7678 73.2454 43.8033C72.5768 43.7387 71.9023 43.8239 71.2703 44.053C70.6384 44.2821 70.0646 44.6494 69.5903 45.1284Z" fill="white"/>
<path d="M120.211 41.739C120.906 42.4879 121.446 43.3693 121.797 44.3314C122.149 45.2934 122.306 46.3166 122.26 47.3407V68.4107H117.431V47.7805C117.454 47.2121 117.362 46.6448 117.161 46.113C116.961 45.5811 116.656 45.0957 116.264 44.6857C115.847 44.3136 115.36 44.0303 114.832 43.8529C114.304 43.6756 113.746 43.6079 113.191 43.6539C112.671 43.645 112.154 43.7453 111.675 43.9484C111.195 44.1515 110.763 44.453 110.405 44.8337C109.528 45.5703 109.238 46.7494 109.238 48.2224V57.5061H103.824V47.7805C103.847 47.2121 103.755 46.6448 103.555 46.113C103.354 45.5811 103.049 45.0957 102.657 44.6857C102.241 44.3136 101.754 44.0303 101.226 43.8529C100.698 43.6756 100.139 43.6079 99.5844 43.6539C98.4005 43.6092 97.2458 44.0309 96.3654 44.8296C95.4879 45.5661 95.1981 46.7452 95.1981 48.2183V57.5061H90.2179V39.8233H95.1927V43.212C95.6967 42.0679 96.5743 41.132 97.6797 40.5598C98.8572 39.9574 100.163 39.654 101.484 39.676C102.92 39.6132 104.343 39.9717 105.58 40.7078C106.743 41.3875 107.665 42.4188 108.214 43.6553C108.816 42.4073 109.787 41.3776 110.993 40.7078C112.231 39.9715 113.654 39.6131 115.09 39.676C116.986 39.7321 118.8 40.463 120.211 41.739Z" fill="white"/>
<path d="M143.912 40.8552C145.208 41.571 146.274 42.6447 146.985 43.95C147.781 45.4435 148.183 47.1181 148.152 48.8131C148.165 50.5061 147.764 52.1762 146.985 53.6762C146.274 54.9815 145.208 56.0552 143.912 56.771C142.562 57.4913 141.05 57.8468 139.523 57.8028C138.041 57.8636 136.571 57.5047 135.28 56.7668C134.162 56.1418 133.286 55.1556 132.793 53.9674V68.5581H127.819V39.9707H132.793V43.6547C133.286 42.4665 134.162 41.4802 135.28 40.8552C136.564 40.1014 138.039 39.7428 139.523 39.8234C141.053 39.744 142.575 40.1017 143.912 40.8552ZM135.427 45.1284C134.929 45.597 134.54 46.1701 134.288 46.807C134.035 47.4439 133.924 48.129 133.963 48.8138C133.924 49.4984 134.035 50.1832 134.288 50.8198C134.541 51.4565 134.929 52.0293 135.427 52.4978C136.438 53.3863 137.743 53.8598 139.084 53.8242C139.752 53.8681 140.421 53.7729 141.05 53.5447C141.68 53.3165 142.256 52.9601 142.742 52.4978C143.691 51.5108 144.217 50.1876 144.205 48.8138C144.259 48.1278 144.155 47.4386 143.901 46.7997C143.647 46.1609 143.251 45.5894 142.742 45.1298C141.745 44.2186 140.43 43.7417 139.084 43.8034C138.415 43.7383 137.74 43.8233 137.108 44.0525C136.475 44.2816 135.901 44.649 135.427 45.1284Z" fill="white"/>
<path d="M172.151 49.6962H157.958C157.938 50.3567 158.058 51.0139 158.31 51.6238C158.563 52.2338 158.942 52.7824 159.422 53.2329C160.316 54.0084 161.461 54.4267 162.641 54.4086C163.617 54.4307 164.581 54.1754 165.42 53.672C166.14 53.187 166.659 52.4546 166.881 51.6119H172.149C171.915 52.8198 171.358 53.9407 170.539 54.8539C169.661 55.8791 168.559 56.686 167.32 57.2115C165.936 57.8157 164.441 58.118 162.933 58.0988C161.217 58.1575 159.512 57.8038 157.958 57.067C156.551 56.4036 155.377 55.3241 154.594 53.9722C153.73 52.5052 153.324 50.8112 153.426 49.1091C153.413 47.4161 153.814 45.7459 154.594 44.2459C155.416 42.926 156.579 41.8562 157.958 41.1512C159.516 40.4286 161.218 40.0751 162.933 40.118C164.65 40.0434 166.359 40.3978 167.908 41.1498C169.248 41.8461 170.402 42.8571 171.272 44.0973C172.032 45.3917 172.435 46.8669 172.44 48.3705C172.312 48.8048 172.215 49.2479 172.151 49.6962ZM166.152 44.3912C165.194 43.6283 164.009 43.2133 162.788 43.2133C161.566 43.2133 160.381 43.6283 159.423 44.3912C158.947 44.7812 158.567 45.2768 158.314 45.8393C158.06 46.4018 157.939 47.0158 157.96 47.6333H167.323C167.413 47.0373 167.353 46.4282 167.148 45.8618C166.944 45.2953 166.601 44.7897 166.152 44.3912Z" fill="white"/>
<path d="M186.05 40.7078C187.268 40.0565 188.621 39.703 190 39.676V44.5391H188.537C184.879 44.5391 183.123 46.0129 183.123 49.107V57.6568H178.149V39.9706H183.124V43.3593C183.919 42.2925 184.913 41.3919 186.05 40.7078Z" fill="white"/>
<path d="M31.1092 66.2005C31.2927 66.4588 31.3946 66.7668 31.4017 67.0843C31.4225 67.2797 31.393 67.4773 31.3162 67.658C31.2393 67.8386 31.1177 67.9964 30.9629 68.1161C30.7838 68.2746 30.575 68.3954 30.3488 68.4713C30.1226 68.5472 29.8837 68.5767 29.646 68.558H27.7439C27.5977 68.558 27.4514 68.558 27.4514 68.4107C27.3052 68.2634 27.3052 68.2634 27.3052 68.1161V63.6949C27.3052 63.5476 27.3052 63.4003 27.4514 63.4003C27.5977 63.253 27.5977 63.253 27.7439 63.253H29.646C29.8837 63.2344 30.1226 63.2639 30.3488 63.3398C30.575 63.4157 30.7838 63.5364 30.9629 63.6949C31.1059 63.8246 31.2192 63.9841 31.295 64.1622C31.3708 64.3404 31.4072 64.533 31.4017 64.7267C31.3962 64.9999 31.2922 65.2616 31.1092 65.4633C30.9425 65.6452 30.7443 65.795 30.5242 65.9052C30.7442 65.9421 30.9481 66.045 31.1092 66.2005ZM28.0365 65.464H29.3534C30.0847 65.464 30.3779 65.1694 30.3779 64.7274C30.3758 64.6135 30.3484 64.5015 30.2978 64.3995C30.2472 64.2976 30.1746 64.2083 30.0854 64.1382C29.8662 64.0047 29.6075 63.9526 29.3541 63.9909H28.1868V65.4647L28.0365 65.464ZM30.2337 67.677C30.324 67.6083 30.3973 67.5195 30.4477 67.4175C30.4982 67.3155 30.5244 67.2031 30.5244 67.0891C30.5244 66.9752 30.4982 66.8628 30.4477 66.7608C30.3973 66.6588 30.324 66.57 30.2337 66.5013C29.9901 66.2924 29.6755 66.1868 29.3562 66.2067H28.0365V67.8277H29.3534C29.7922 67.8215 30.0847 67.8215 30.2317 67.6735L30.2337 67.677ZM38.1343 68.2662C38.1343 68.4135 38.1343 68.4135 37.988 68.5608C37.8418 68.7081 37.8418 68.7081 37.6955 68.7081H37.3989L37.2526 68.5608L36.8139 67.529H34.1819L33.7432 68.4128C33.7435 68.4323 33.74 68.4516 33.7328 68.4696C33.7256 68.4877 33.7148 68.5041 33.7012 68.5178C33.6875 68.5316 33.6712 68.5424 33.6533 68.5497C33.6354 68.5569 33.6162 68.5605 33.5969 68.5601H33.3044C33.1582 68.5601 33.0119 68.5601 33.0119 68.4128C32.8656 68.2655 32.8656 68.2655 32.8656 68.1182V67.9709L34.9139 63.4031C34.9139 63.2558 35.0602 63.2558 35.0602 63.1085C35.2064 63.1085 35.2064 62.9612 35.3527 62.9612C35.4989 62.9612 35.4989 62.9612 35.6452 63.1085C35.7914 63.1085 35.7914 63.2558 35.7914 63.4031L37.8397 67.9709C38.1322 68.1161 38.1322 68.1161 38.1322 68.2634L38.1343 68.2662ZM34.4765 66.4979H36.5248L35.5003 64.2848L34.4765 66.4979ZM44.4233 68.2634C44.4233 68.4107 44.4233 68.4107 44.277 68.558C44.1308 68.7053 44.1308 68.7053 43.9845 68.7053H43.692C43.6727 68.7057 43.6535 68.7022 43.6356 68.6949C43.6177 68.6876 43.6014 68.6768 43.5878 68.663C43.5741 68.6493 43.5633 68.6329 43.5561 68.6149C43.5489 68.5968 43.5454 68.5775 43.5457 68.558L42.5213 66.7897C42.375 66.6424 42.375 66.4951 42.2288 66.4951C42.0825 66.4951 41.9362 66.3478 41.79 66.3478H41.058V68.1161C41.058 68.2634 41.058 68.4107 40.9118 68.4107C40.7655 68.558 40.7655 68.558 40.6193 68.558C40.473 68.558 40.3267 68.558 40.3267 68.4107C40.1805 68.2634 40.1805 68.2634 40.1805 68.1161V63.6949C40.1805 63.5476 40.1805 63.4003 40.3267 63.4003C40.473 63.253 40.473 63.253 40.6193 63.253H42.5213C42.759 63.2344 42.998 63.2639 43.2242 63.3398C43.4503 63.4157 43.6592 63.5364 43.8383 63.6949C44.1305 64.0146 44.2879 64.4362 44.277 64.8706C44.2685 65.234 44.1678 65.5893 43.9845 65.9024C43.6981 66.1831 43.3456 66.3858 42.96 66.4916C43.1063 66.4916 43.2525 66.6389 43.3988 66.6389C43.5451 66.7862 43.6913 66.7862 43.6913 67.0809L44.4226 68.1127C44.277 68.1161 44.4233 68.1161 44.4233 68.2634ZM42.9607 65.4633C43.051 65.3946 43.1243 65.3058 43.1747 65.2038C43.2252 65.1018 43.2514 64.9894 43.2514 64.8754C43.2514 64.7615 43.2252 64.6491 43.1747 64.5471C43.1243 64.4451 43.051 64.3563 42.9607 64.2876C42.8145 64.1403 42.522 64.1403 42.0832 64.1403H40.7635V65.9086H42.0804C42.5213 65.6106 42.8138 65.6106 42.9607 65.4633ZM46.4722 68.4107C46.326 68.2634 46.326 68.2634 46.326 68.1161V63.6949C46.326 63.5476 46.326 63.4003 46.4722 63.4003C46.6185 63.253 46.6185 63.253 46.7647 63.253H48.2273C48.9792 63.221 49.7139 63.4852 50.2756 63.9895C50.7512 64.5119 51.0125 65.1965 51.0069 65.9052C51.0121 66.6581 50.7531 67.3888 50.2756 67.9681C50.0171 68.2463 49.6964 68.4584 49.3401 68.5866C48.9838 68.7148 48.6023 68.7555 48.2273 68.7053H46.7641C46.6178 68.5601 46.4715 68.5601 46.4715 68.4107H46.4722ZM48.228 67.8215C48.4856 67.8547 48.7473 67.828 48.9931 67.7434C49.2389 67.6589 49.4621 67.5188 49.6458 67.3338C49.8294 67.1489 49.9685 66.924 50.0525 66.6765C50.1364 66.4289 50.1629 66.1653 50.13 65.9059C50.13 64.5794 49.545 63.9902 48.228 63.9902H47.3491V67.8215H48.228ZM56.7136 68.1161C56.7221 68.1762 56.7166 68.2373 56.6975 68.2949C56.6785 68.3524 56.6464 68.4046 56.6038 68.4475C56.5613 68.4904 56.5094 68.5227 56.4523 68.5419C56.3952 68.561 56.3344 68.5666 56.2748 68.558H53.0544C52.9082 68.558 52.7619 68.558 52.7619 68.4107C52.7619 68.2634 52.6157 68.2634 52.6157 68.1161C52.6157 67.9688 52.6157 67.8215 52.7619 67.8215L55.5415 63.9902H53.2014C53.085 63.9902 52.9734 63.9437 52.8911 63.8608C52.8088 63.7779 52.7626 63.6655 52.7626 63.5483C52.7626 63.4311 52.8088 63.3187 52.8911 63.2358C52.9734 63.153 53.085 63.1064 53.2014 63.1064H56.2741C56.4204 63.1064 56.5666 63.1064 56.5666 63.2537C56.5666 63.401 56.7129 63.401 56.7129 63.5483C56.7129 63.6956 56.7129 63.8429 56.5666 63.8429L53.7871 67.6742H56.2741C56.5666 67.8213 56.7129 67.9686 56.7129 68.1161H56.7136ZM58.6156 68.558C58.4693 68.4107 58.4693 68.4107 58.4693 68.2634V63.6949C58.4693 63.5476 58.4693 63.4003 58.6156 63.4003C58.7618 63.253 58.7618 63.253 58.9081 63.253C59.0544 63.253 59.2006 63.253 59.2006 63.4003C59.3469 63.5476 59.3469 63.5476 59.3469 63.6949V68.2627C59.3469 68.41 59.3469 68.5574 59.2006 68.5574C59.0544 68.7047 59.0544 68.7047 58.9081 68.7047C58.9074 68.5601 58.7612 68.5601 58.6163 68.5601L58.6156 68.558ZM61.8346 68.4107C61.6883 68.2634 61.6883 68.2634 61.6883 68.1161V63.6949C61.6883 63.5476 61.6883 63.4003 61.8346 63.4003C61.9808 63.253 61.9808 63.253 62.1271 63.253H64.9066C65.0529 63.253 65.1992 63.253 65.1992 63.4003C65.3454 63.4003 65.3454 63.5476 65.3454 63.6949C65.3454 63.8422 65.3454 63.9895 65.1992 63.9895C65.0529 63.9895 65.0529 64.1368 64.9066 64.1368H62.7094V65.6106H64.7576C64.9039 65.6106 65.0502 65.6106 65.0502 65.7579C65.1964 65.7579 65.1964 65.9052 65.1964 66.0525C65.1964 66.1998 65.1964 66.1998 65.0502 66.3471C64.9039 66.3471 64.9039 66.4944 64.7576 66.4944H62.7114V68.1154H64.9087C65.055 68.1154 65.2012 68.1154 65.2012 68.2627C65.3475 68.2627 65.3475 68.41 65.3475 68.5574C65.3475 68.7047 65.3475 68.7047 65.2012 68.852C65.055 68.852 65.055 68.9993 64.9087 68.9993H62.1264C61.9808 68.5601 61.9808 68.5601 61.8339 68.4107H61.8346ZM66.6631 68.2634C66.6631 68.1161 66.6631 68.1161 66.8093 67.9688C66.9556 67.8215 66.9556 67.8215 67.1019 67.8215H67.3944C67.5474 67.796 67.6955 67.7463 67.8331 67.6742C67.9794 67.5269 67.9794 67.3796 67.9794 67.085V63.6963C67.9794 63.549 67.9794 63.4017 68.1256 63.4017C68.2719 63.2544 68.2719 63.2544 68.4182 63.2544C68.5644 63.2544 68.7107 63.2544 68.7107 63.4017C68.7107 63.549 68.8569 63.549 68.8569 63.6963V67.085C68.8569 68.1168 68.4182 68.5587 67.3937 68.706H67.1012C67.0415 68.7146 66.9807 68.7091 66.9235 68.6898C66.8664 68.6706 66.8144 68.6382 66.7718 68.5953C66.7293 68.5523 66.6972 68.5 66.6782 68.4424C66.6592 68.3848 66.6538 68.3235 66.6624 68.2634H66.6631ZM74.2718 68.4107C74.1256 68.2634 74.1256 68.2634 74.1256 68.1161V63.6949C74.1256 63.5476 74.1256 63.4003 74.2718 63.4003C74.4181 63.253 74.4181 63.253 74.5643 63.253C74.7106 63.253 74.8568 63.253 74.8568 63.4003C75.0031 63.5476 75.0031 63.5476 75.0031 63.6949V67.8208H77.2004C77.3167 67.8208 77.4283 67.8674 77.5106 67.9503C77.5929 68.0331 77.6391 68.1455 77.6391 68.2627C77.6391 68.3799 77.5929 68.4923 77.5106 68.5752C77.4283 68.6581 77.3167 68.7047 77.2004 68.7047H74.7092C74.563 68.5601 74.4167 68.5601 74.2718 68.4107ZM80.1241 68.2634C79.72 68.0344 79.4092 67.669 79.2466 67.2316C79.0534 66.7646 78.9539 66.2638 78.9539 65.7579C78.9539 65.252 79.0534 64.7511 79.2466 64.2841C79.4092 63.8468 79.72 63.4813 80.1241 63.2523C80.521 63.016 80.9822 62.9128 81.4411 62.9577C81.8969 62.9511 82.3479 63.052 82.7581 63.2523C83.1622 63.4813 83.473 63.8468 83.6356 64.2841C83.8288 64.7511 83.9283 65.252 83.9283 65.7579C83.9283 66.2638 83.8288 66.7646 83.6356 67.2316C83.473 67.669 83.1622 68.0344 82.7581 68.2634C82.3612 68.4998 81.9 68.6029 81.4411 68.558C81.2138 68.6168 80.976 68.6207 80.7469 68.5696C80.5179 68.5184 80.304 68.4135 80.1227 68.2634H80.1241ZM82.7574 67.3796C83.0438 66.9422 83.1964 66.4298 83.1964 65.9059C83.1964 65.3819 83.0438 64.8695 82.7574 64.4321C82.4332 64.1471 82.0174 63.99 81.587 63.99C81.1566 63.99 80.7409 64.1471 80.4166 64.4321C80.1303 64.8695 79.9776 65.3819 79.9776 65.9059C79.9776 66.4298 80.1303 66.9422 80.4166 67.3796C80.7409 67.6646 81.1566 67.8217 81.587 67.8217C82.0174 67.8217 82.4332 67.6646 82.7574 67.3796ZM85.0982 68.2634C85.0982 68.1161 85.0982 68.1161 85.2444 67.9688C85.3907 67.8215 85.3907 67.8215 85.5369 67.8215H85.8295C85.9825 67.796 86.1306 67.7463 86.2682 67.6742C86.4145 67.5269 86.4145 67.3796 86.4145 67.085V63.6963C86.4145 63.549 86.4145 63.4017 86.5607 63.4017C86.707 63.2544 86.707 63.2544 86.8533 63.2544C86.9995 63.2544 87.1458 63.2544 87.1458 63.4017C87.1458 63.549 87.292 63.549 87.292 63.6963V67.085C87.292 68.1168 86.8533 68.5587 85.8288 68.706H85.5328C85.419 68.6986 85.3118 68.6495 85.2315 68.568C85.1512 68.4864 85.1033 68.3781 85.0968 68.2634H85.0982ZM94.462 68.2634C94.462 68.4107 94.462 68.4107 94.3157 68.558C94.1695 68.7053 94.1695 68.7053 94.0232 68.7053H93.7307L93.5844 68.558L93.1457 67.5262H90.5124L90.0716 68.5601C90.0719 68.5796 90.0684 68.5989 90.0612 68.6169C90.054 68.635 90.0432 68.6514 90.0296 68.6651C90.0159 68.6789 89.9996 68.6897 89.9817 68.697C89.9638 68.7042 89.9446 68.7078 89.9253 68.7074H89.6328C89.4865 68.7074 89.3403 68.7074 89.3403 68.5601C89.194 68.4128 89.194 68.4128 89.194 68.2655V68.1182L91.2423 63.5504C91.2423 63.4031 91.3886 63.4031 91.3886 63.2558C91.5348 63.2558 91.5348 63.1085 91.6811 63.1085C91.8273 63.1085 91.8273 63.1085 91.9736 63.2558C92.1198 63.2558 92.1198 63.4031 92.1198 63.5504L94.1681 68.1182C94.4592 68.1161 94.4592 68.1161 94.4592 68.2634H94.462ZM90.8042 66.4951H92.8525L91.828 64.2821L90.8042 66.4951ZM96.3661 68.4107C96.2198 68.2634 96.2198 68.2634 96.2198 68.1161V63.6949C96.2198 63.5476 96.2198 63.4003 96.3661 63.4003C96.5123 63.253 96.5123 63.253 96.6586 63.253C96.8048 63.253 96.9511 63.253 96.9511 63.4003C97.0973 63.5476 97.0973 63.5476 97.0973 63.6949V67.8208H99.2946C99.411 67.8208 99.5226 67.8674 99.6049 67.9503C99.6871 68.0331 99.7334 68.1455 99.7334 68.2627C99.7334 68.3799 99.6871 68.4923 99.6049 68.5752C99.5226 68.6581 99.411 68.7047 99.2946 68.7047H96.6565C96.6565 68.5601 96.5089 68.5601 96.3626 68.4107H96.3661ZM105.876 63.253C106.022 63.4003 106.022 63.4003 106.022 63.5476V68.1154C106.022 68.2627 106.022 68.41 105.876 68.41C105.73 68.5573 105.73 68.5574 105.584 68.5574C105.504 68.5672 105.424 68.5591 105.348 68.5336C105.272 68.5082 105.202 68.4659 105.145 68.41L102.365 64.7261V68.1147C102.365 68.2621 102.365 68.4094 102.219 68.4094C102.073 68.5567 102.073 68.5567 101.927 68.5567C101.78 68.5567 101.634 68.5567 101.634 68.4094C101.488 68.2621 101.488 68.2621 101.488 68.1147V63.5476C101.488 63.4003 101.488 63.253 101.634 63.253C101.78 63.1057 101.78 63.1057 101.927 63.1057C102.073 63.1057 102.219 63.1057 102.219 63.253L104.999 66.937V63.6949C104.999 63.5476 104.999 63.4003 105.145 63.4003C105.291 63.4003 105.291 63.253 105.437 63.253C105.726 63.1057 105.873 63.253 105.873 63.253H105.876ZM108.363 68.558C108.217 68.4107 108.217 68.4107 108.217 68.2634V63.6949C108.217 63.5476 108.217 63.4003 108.363 63.4003C108.509 63.253 108.509 63.253 108.656 63.253C108.802 63.253 108.948 63.253 108.948 63.4003C109.094 63.5476 109.094 63.5476 109.094 63.6949V68.2627C109.094 68.41 109.094 68.5574 108.948 68.5574C108.802 68.7047 108.802 68.7047 108.656 68.7047C108.506 68.5601 108.506 68.5601 108.36 68.5601L108.363 68.558Z" fill="#1DEEFD"/>
</g>
<defs>
<linearGradient id="paint0_linear" x1="-4.63046" y1="33.7021" x2="32.3574" y2="23.3757" gradientUnits="userSpaceOnUse">
<stop stop-color="#0C97FE"/>
<stop offset="0.182" stop-color="#0D9EFE"/>
<stop offset="0.453" stop-color="#11B2FE"/>
<stop offset="0.778" stop-color="#18D3FD"/>
<stop offset="1" stop-color="#1DEEFD"/>
</linearGradient>
<clipPath id="clip0">
<rect width="190" height="69" fill="white"/>
</clipPath>
</defs>
</svg>
